<svg width="22" height="22" viewBox="0 0 22 22" fill="none" xmlns="http://www.w3.org/2000/svg">
<path d="M11 22C4.9247 22 0 17.0753 0 11C0 4.9247 4.9247 0 11 0C17.0753 0 22 4.9247 22 11C22 17.0753 17.0753 22 11 22ZM11 19.8C13.3339 19.8 15.5722 18.8729 17.2225 17.2225C18.8729 15.5722 19.8 13.3339 19.8 11C19.8 8.66609 18.8729 6.42778 17.2225 4.77746C15.5722 3.12714 13.3339 2.2 11 2.2C8.66609 2.2 6.42778 3.12714 4.77746 4.77746C3.12714 6.42778 2.2 8.66609 2.2 11C2.2 13.3339 3.12714 15.5722 4.77746 17.2225C6.42778 18.8729 8.66609 19.8 11 19.8ZM9.9 15.4H6.6V6.6H9.9V4.4H12.1V6.6H13.2C13.7107 6.6 14.2113 6.74222 14.6458 7.01071C15.0802 7.27921 15.4313 7.66337 15.6597 8.12016C15.8881 8.57695 15.9848 9.08832 15.9389 9.59697C15.893 10.1056 15.7064 10.5914 15.4 11C15.7064 11.4086 15.893 11.8944 15.9389 12.403C15.9848 12.9117 15.8881 13.423 15.6597 13.8798C15.4313 14.3366 15.0802 14.7208 14.6458 14.9893C14.2113 15.2578 13.7107 15.4 13.2 15.4H12.1V17.6H9.9V15.4ZM8.8 12.1V13.2H13.2C13.3459 13.2 13.4858 13.1421 13.5889 13.0389C13.6921 12.9358 13.75 12.7959 13.75 12.65C13.75 12.5041 13.6921 12.3642 13.5889 12.2611C13.4858 12.1579 13.3459 12.1 13.2 12.1H8.8ZM8.8 8.8V9.9H13.2C13.3459 9.9 13.4858 9.84205 13.5889 9.73891C13.6921 9.63576 13.75 9.49587 13.75 9.35C13.75 9.20413 13.6921 9.06424 13.5889 8.96109C13.4858 8.85795 13.3459 8.8 13.2 8.8H8.8Z" fill="#4B4B60"/>
</svg>
