<svg width="32" height="32" viewBox="0 0 32 32" fill="none" xmlns="http://www.w3.org/2000/svg">
<path d="M25 11H26V21H25V24C25 24.2652 24.8946 24.5196 24.7071 24.7071C24.5196 24.8946 24.2652 25 24 25H6C5.73478 25 5.48043 24.8946 5.29289 24.7071C5.10536 24.5196 5 24.2652 5 24V8C5 7.73478 5.10536 7.48043 5.29289 7.29289C5.48043 7.10536 5.73478 7 6 7H24C24.2652 7 24.5196 7.10536 24.7071 7.29289C24.8946 7.48043 25 7.73478 25 8V11ZM23 21H17C15.6739 21 14.4021 20.4732 13.4645 19.5355C12.5268 18.5979 12 17.3261 12 16C12 14.6739 12.5268 13.4021 13.4645 12.4645C14.4021 11.5268 15.6739 11 17 11H23V9H7V23H23V21ZM24 19V13H17C16.2044 13 15.4413 13.3161 14.8787 13.8787C14.3161 14.4413 14 15.2044 14 16C14 16.7956 14.3161 17.5587 14.8787 18.1213C15.4413 18.6839 16.2044 19 17 19H24ZM17 15H20V17H17V15Z" fill="#4B4B60"/>
</svg>